<svg version="1.1" id="Layer_1" xmlns="http://www.w3.org/2000/svg" x="0" y="0" width="485" height="1039" style="enable-background:new 0 0 485 1039" xml:space="preserve"><style>.st0{fill:#e5ecf3}.st1{fill:none;stroke:#000}.st1,.st2,.st4{stroke-miterlimit:10}.st2{fill:none;stroke:#999;stroke-width:3}.st4{fill:#efc95e;stroke:#d2a832}.st6{fill:#cfcfcf}.st8,.st9{fill:none;stroke-miterlimit:10}.st8{stroke:#19f;stroke-width:2}.st9{stroke:#fff}.st10{fill:#88a5b9}.st11{fill:#fff}.st12{fill:#231f20}.st13,.st14{fill:none;stroke-miterlimit:10}.st13{stroke:#fff;stroke-linecap:round}.st14{stroke:#46aaff}.st15{fill:#666}.st16{fill:#ec836d}.st21{fill:#999}.st26{fill:none;stroke:#000;stroke-linecap:round;stroke-linejoin:round;stroke-miterlimit:10}.st27{fill:#ef7878}.st28{fill:#e9f2f7}.st29{fill:#f5f6f9}.st30{fill:#f4f4f4}.st31{fill:#b7bec9}.st32,.st33{fill:#fff;stroke-width:.75;stroke-miterlimit:10}.st32{stroke:#3a3a3a;stroke-linecap:round;stroke-linejoin:round}.st33{stroke:#b7bec9;stroke-linecap:square}.st34{fill:#f4f7f9}.st35{stroke-linejoin:round}.st35,.st36{fill:#fff;stroke:#b7bec9;stroke-width:.75;stroke-linecap:round;stroke-miterlimit:10}.st41{fill:#fafbfd}.st42,.st43{fill:none;stroke:#b7bec9;stroke-linecap:round}.st42{stroke-miterlimit:10;stroke-dasharray:8,0,0,2}.st43{stroke-width:2;stroke-linejoin:round}.st43,.st44,.st46{stroke-miterlimit:10}.st44{fill:#fff;stroke:#b7bec9;stroke-linecap:square}.st46{fill:none;stroke:#f80509}.st47{fill:#898989}.st49{stroke:#fff;stroke-width:2}.st49,.st50,.st53{fill:none;stroke-miterlimit:10}.st50{stroke:#307ed1;stroke-width:1.3;stroke-linecap:round}.st53{stroke:#5195dd}.st54{fill:#61c175}.st55{enable-background:new}.st57{fill:#fff;stroke:#fff;stroke-miterlimit:10}.st60{fill:#797979}.st62{fill:#72bafc}.st63,.st64,.st65,.st66{fill:none;stroke:#000;stroke-width:3;stroke-linecap:round;stroke-linejoin:round;stroke-miterlimit:10}.st64,.st65,.st66{stroke:#599ce0}.st65,.st66{stroke-width:4}.st66{stroke:#000}.st67{fill:#599ce0}.st73{stroke:#fff;stroke-width:2}.st73,.st75,.st83{fill:none;stroke-linecap:round;stroke-miterlimit:10}.st75{stroke:#8d95a0;stroke-width:2;stroke-linejoin:round}.st83{stroke:#000}.st88{fill:#696e2d}.st91{fill-rule:evenodd;clip-rule:evenodd;fill:#945211}.st92{fill:none;stroke:#fff;stroke-width:2.5;stroke-linecap:round;stroke-miterlimit:10}.st93{fill:#b2c0cd}.st94,.st95{fill:none;stroke-width:1.5}.st94{stroke:#777;stroke-linecap:square;stroke-linejoin:round}.st95{stroke:#ffa800;stroke-miterlimit:10}</style><path class="st0" d="M400.9 488.9h80v80h-80z"/><path class="st1" d="M82 13.5h-9"/><path class="st2" d="M7.5 2v11M13 7.5H2M32 7.5H21"/><path d="M48.5 2C44.4 2 41 5.4 41 9.5s3.4 7.5 7.5 7.5S56 13.6 56 9.5 52.6 2 48.5 2zm4.5 9h-9V8h9v3z" style="fill:#ea6a6a"/><path class="st4" d="M89 2.5h-1.5l-13 21H89"/><path class="st1" d="M110 13.5h9"/><path class="st4" d="M103 23.5h1.5l13-21H103"/><path d="m144 8-7.3 7.3 2.9 2.9 7.3-7.3L144 8zm-9.2 12.1h3.9l-3.9-3.9v3.9z" style="fill:#2594e1"/><path class="st1" d="M163 14.5h15M167.7 9.3l-5.2 5.2 5.2 5.2"/><path class="st6" d="M194 7c-3.9 0-7 3.1-7 7s3.1 7 7 7 7-3.1 7-7-3.1-7-7-7zm4 8h-8v-2h8v2z"/><path d="M238.5 4c-4.7 0-8.5 3.8-8.5 8.5s3.8 8.5 8.5 8.5 8.5-3.8 8.5-8.5-3.8-8.5-8.5-8.5z" style="fill:#aaa"/><path class="st8" d="M217 8v10M222 13h-10"/><path class="st9" d="M238.5 8v7.8M235 13l3.5 3.3L242 13"/><path class="st10" d="M255 8h2v2h-2zM258 8h2v2h-2zM255 16h2v2h-2zM258 16h2v2h-2zM255 12h2v2h-2zM258 12h2v2h-2z"/><path class="st1" d="m281.3 24.3 4.2 4.2 4.2-4.2M289.7 5.9l-4.2-4.2-4.2 4.2M276.3 10.9l-4.2 4.2 4.2 4.2M295.7 19.3l4.2-4.2-4.2-4.2M383.5 8.5h8v8h-8zM382.5 6.5h10v2h-10zM385.5 4.5h4v2h-4z"/><path d="M93 94H58V48h30.2l4.8 5.9V94m-4.2-47H57v48h37V53.2L88.8 47z"/><path d="M89 72h-8 8m1-1H80v2h10v-2zM85 58h2v10h-2zM80 59h2v9h-2zM70 55h3v8h-3zM75 60h3v3h-3zM65 56h3v7h-3zM89 76h-8 8m1-1H80v1h10v-1zM89 79h-8 8m1 0H80v1h10v-1zM89 83h-8 8m1-1H80v2h10v-2zM87 47h1v7h-1z"/><path d="M87 53h6v1h-6z"/><path class="st11" d="M23 64h56v34H23z"/><path d="M78 65v32H24V65h53m2-1H23v34h56V64z"/><path d="m78.4 64.7-1.4.4-26.5 19.7L24 65.1v.9l26.5 21.8"/><path d="M57.9 81 79 97.4v-1l-19.6-17M43.6 82 23 97.4v-1l18.8-16"/><path class="st12" d="M98.9 93.7C94.1 93 141 99.2 63 105.8v3.9c25-1.8 64.7-10.7 35.9-16zM16.8 93.7c4.5-.9-38.8 5.9 36.2 12.2v3.9c-22-1.1-65.5-11-36.2-16.1z"/><path class="st12" d="m52.4 99.2 7.7 9.1-7.8 8.3z"/><path class="st11" d="M155 63h54v35h-54z"/><path d="M208 64v33h-52V64h52m1-1h-54v35h54V63z"/><path d="M209 65v-1.7l-27 21.4-27-21.4v1l27 24.4"/><path d="M189.3 81.9 209 97.6v-1l-18.5-16.4M175.3 81.9 155 97.6v-1l18.9-16.4"/><path class="st12" d="M152.9 65.1c3.5.7-33.9-4.5 26.1-9.3v-3c-17 .8-48.5 8.3-26.1 12.3z"/><path class="st12" d="m177.2 62 6.6-7.8-6.7-7.2zM211.1 95.3c-3.5-.7 33.9 4.5-26.1 9.3v3c19-.8 48.5-8.3 26.1-12.3z"/><path class="st12" d="m188.3 98.4-6.6 7.8 6.7 7.2z"/><path class="st11" d="M251 61h56v34h-56z"/><path d="M306 62v32h-54V62h54m1-1h-56v34h56V61z"/><path d="M307 62v-.5L279 82l-28-20.5v.9l28 23.1"/><path d="m287 79.2 20 15.7V94l-18.8-16.5M272.1 79.2 251 94.9V94l19.3-16.5"/><path class="st11" d="M257 58h45v1h-45z"/><path d="M303 58h-46v1h46zM300 55h-40v2h40z"/><circle class="st11" cx="305.1" cy="91" r="16.7"/><circle class="st11" cx="294" cy="94.4" r="9.5"/><circle class="st11" cx="304" cy="90.7" r="12.8"/><path class="st12" d="M317.2 94.3c-.1.3-.1.7-.3 1.1-.1.5-.4 1.1-.6 1.7-.3.6-.7 1.3-1.2 2s-1.1 1.4-1.8 2c-.7.7-1.6 1.2-2.5 1.7s-1.9.8-3 1.1c-1.1.2-2.1.3-3.2.3-1.1-.1-2.1-.3-3.1-.6-1-.4-1.9-.8-2.7-1.3-.8-.6-1.5-1.2-2.1-1.8-.6-.6-1.1-1.3-1.5-2s-.6-1.3-.8-1.9c-.1-.3-.2-.6-.2-.8 0-.2-.1-.5-.1-.7V95l4.2-.1-6-6-6.3 6.3 4.2-.1c0 .2.1.4.2.7.1.3.2.6.3 1 .1.3.3.7.4 1 .3.7.8 1.5 1.3 2.3.6.8 1.3 1.6 2.1 2.3.8.8 1.8 1.4 2.8 2 1.1.6 2.2 1 3.4 1.3 1.2.3 2.5.4 3.7.3s2.5-.3 3.6-.7c1.1-.4 2.2-.9 3.2-1.5.9-.6 1.8-1.3 2.5-2.1.7-.7 1.2-1.6 1.7-2.3.4-.8.8-1.5 1-2.2s.4-1.3.5-1.8c.3-.4.4-.8.3-1.1.1-.3.1-.4.1-.4s0 .1-.1.4zM318.2 87.2c0-.2-.1-.4-.2-.7-.1-.3-.2-.6-.3-1-.1-.3-.3-.7-.4-1-.3-.7-.8-1.5-1.3-2.3-.6-.8-1.3-1.6-2.1-2.3-.8-.8-1.8-1.4-2.8-2-1.1-.6-2.2-1-3.4-1.3-1.2-.3-2.5-.4-3.7-.3s-2.5.3-3.6.7c-1.1.4-2.2.9-3.2 1.5-.9.6-1.8 1.3-2.5 2.1-.7.7-1.2 1.6-1.7 2.3-.4.8-.8 1.5-1 2.2s-.4 1.3-.5 1.8-.1.9-.2 1.2v.4s0-.1.1-.4.1-.7.3-1.1c.1-.5.4-1.1.6-1.7.3-.6.7-1.3 1.2-2s1.1-1.4 1.8-2c.7-.7 1.6-1.2 2.5-1.7s1.9-.8 3-1.1c1.1-.2 2.1-.3 3.2-.3 1.1.1 2.1.3 3.1.6 1 .4 1.9.8 2.7 1.3.8.6 1.5 1.2 2.1 1.8.6.6 1.1 1.3 1.5 2s.6 1.3.8 1.9c.1.3.2.6.2.8 0 .2.1.5.1.7v.1l-4.2.1 6 6 6.3-6.3h-4.4z"/><path class="st11" d="M368 47v13h13V47h-13zm11 11h-9v-9h9v9zM383 57v13h13V57h-13zm11 11h-9v-9h9v9z"/><path class="st13" d="M379.6 66.5H369M371.6 63.4l-3.1 3.1M368.5 66.5l3.1 3.1M384.5 50.5h10.6M392.5 53.6l3.1-3M395.6 50.5l-3.1-3.1"/><path class="st1" d="M341.5 18V8M338.3 10.7l3.2-3.2 3.2 3.2"/><path class="st14" d="M363.5 18V8M360.3 10.7l3.2-3.2 3.2 3.2"/><path class="st1" d="M318.5 17V7M321.7 14.3l-3.2 3.2-3.2-3.2"/><path class="st14" d="M388.5 37V27M391.7 34.3l-3.2 3.2-3.2-3.2"/><path class="st15" d="m316.1 54.3.1-.1c.1.1.3.2.5.2.3 0 .3-.1.3-.3 0-.4-.9-.2-.9-.7 0-.3.2-.4.5-.4.2 0 .4.1.5.2l-.1.1c-.1-.1-.3-.2-.4-.2-.2 0-.3.1-.3.2 0 .3.9.1.9.7 0 .2-.1.5-.5.5-.3 0-.5-.1-.6-.2zM322.2 54.5v-1.3l-.5 1.3h-.1l-.5-1.3v1.3h-.1V53h.3l.5 1.2.5-1.2h.3v1.6l-.4-.1zM326.5 54.5v-1.4h-.5V53h1.1v.2h-.5v1.4h-.1v-.1zM331.9 54.5l-.3-1.3-.3 1.3h-.2l-.4-1.6h.2l.3 1.3.3-1.3h.2l.3 1.3.3-1.3h.2l-.4 1.6h-.2zM336.5 54.5v-1.4h-.5V53h1.1v.2h-.5v1.4h-.1v-.1zM340.9 54.5V53h1v.2h-.8v.5h.8v.2h-.8v.7h-.2v-.1zM345.7 54.3l.1-.1c.1.1.3.2.5.2.3 0 .3-.1.3-.3 0-.4-.9-.2-.9-.7 0-.3.2-.4.5-.4.2 0 .4.1.5.2l-.1.1c-.1-.1-.3-.2-.4-.2-.2 0-.3.1-.3.2 0 .3.9.1.9.7 0 .2-.1.5-.5.5-.3 0-.5-.1-.6-.2z"/><path class="st16" d="M318 51.3c0 .4-.3.7-.7.7h-1.6c-.4 0-.7-.3-.7-.7V38.7c0-.4.3-.7.7-.7h1.6c.4 0 .7.3.7.7v12.6zM323 51.6c0 .2-.2.4-.4.4h-2.1c-.2 0-.4-.2-.4-.4V32.4c0-.2.2-.4.4-.4h2.1c.2 0 .4.2.4.4v19.2zM328 51.6c0 .2-.2.4-.4.4h-2.2c-.2 0-.4-.2-.4-.4V34.4c0-.2.2-.4.4-.4h2.2c.2 0 .4.2.4.4v17.2zM333 51.6c0 .2-.2.4-.4.4h-2.2c-.2 0-.4-.2-.4-.4V37.4c0-.2.2-.4.4-.4h2.2c.2 0 .4.2.4.4v14.2zM338 51.6c0 .2-.2.4-.4.4h-2.1c-.2 0-.4-.2-.4-.4V32.4c0-.2.2-.4.4-.4h2.1c.2 0 .4.2.4.4v19.2zM343 51.5c0 .3-.2.5-.5.5h-2.1c-.3 0-.5-.2-.5-.5v-22c0-.3.2-.5.5-.5h2.1c.3 0 .5.2.5.5v22zM348 51.6c0 .2-.2.4-.4.4h-2.2c-.2 0-.4-.2-.4-.4V35.4c0-.2.2-.4.4-.4h2.2c.2 0 .4.2.4.4v16.2z"/><path style="fill:none;stroke:#363636;stroke-miterlimit:10" d="M314 36.5h35"/><circle cx="349.6" cy="36.5" r="1.2" style="fill:#363636;stroke:#363636;stroke-width:2;stroke-miterlimit:10"/><circle cx="376.5" cy="98.5" r="16.5" style="fill:none;stroke:#ccc;stroke-width:2;stroke-miterlimit:10"/><path d="M377 82c8.7 0 15.7 6.9 15.7 15.5 0 3.1-1.2 8.2-2.8 10.6L377 98V82z" style="fill:#e2f1fa"/><path class="st21" d="m367.5 82.4-2.8 1.7c-.7.4-1.7.2-2.1-.6l-.1-.1c-.4-.7-.2-1.7.6-2.1l2.8-1.7c.7-.4 1.7-.2 2.1.6l.1.1c.4.7.1 1.7-.6 2.1zM386 82.4l2.8 1.7c.7.4 1.7.2 2.1-.6l.1-.1c.4-.7.2-1.7-.6-2.1l-2.8-1.7c-.7-.4-1.7-.2-2.1.6l-.1.1c-.3.7-.1 1.7.6 2.1zM376.9 88h-.2c-.1 0-.2-.1-.2-.2v-2.5c0-.1.1-.2.2-.2h.2c.1 0 .2.1.2.2v2.5c0 .1-.1.2-.2.2zM376.9 111.7h-.2c-.1 0-.2-.1-.2-.2V109c0-.1.1-.2.2-.2h.2c.1 0 .2.1.2.2v2.5c0 .1-.1.2-.2.2zM366.5 98.4c0 .2-.1.3-.2.3H364c-.1 0-.2-.1-.2-.2v-.1c0-.1.1-.2.2-.2h2.3c.1-.1.2 0 .2.2zM389.9 98.4c0 .2-.1.3-.2.3h-2.3c-.1 0-.2-.1-.2-.2v-.1c0-.1.1-.2.2-.2h2.3c.1-.1.2 0 .2.2zM382.4 89.6c-.2-.1-.2-.3-.2-.4l1.3-2c.1-.1.2-.1.3-.1l.1.1c.1.1.1.2.1.3l-1.3 2c0 .2-.2.2-.3.1zM369.8 109.7c-.2-.1-.2-.3-.2-.4l1.3-2c.1-.1.2-.1.3-.1l.1.1c.1.1.1.2.1.3l-1.3 2c0 .1-.2.1-.3.1zM368.2 92.8c-.1.2-.3.2-.4.2l-2-1.3c-.1-.1-.1-.2-.1-.3l.1-.1c.1-.1.2-.1.3-.1l2 1.3c.1 0 .1.2.1.3zM387.9 105.5c-.1.2-.3.2-.4.2l-2-1.3c-.1-.1-.1-.2-.1-.3l.1-.1c.1-.1.2-.1.3-.1l2 1.3c.1.1.2.2.1.3zM386 93.6c-.1-.2-.1-.3 0-.4l2.1-1.1c.1-.1.3 0 .3.1v.1c.1.1 0 .3-.1.3l-2.1 1.1c0 .1-.2 0-.2-.1zM365.2 104.7c-.1-.2-.1-.3 0-.4l2.1-1.1c.1-.1.3 0 .3.1v.1c.1.1 0 .3-.1.3l-2.1 1.1s-.1 0-.2-.1zM372.1 89.1c-.2.1-.3.1-.4 0l-1.1-2.1c-.1-.1 0-.3.1-.3h.1c.1-.1.3 0 .3.1l1.1 2.1s0 .2-.1.2zM383 110.2c-.2.1-.3.1-.4 0l-1.1-2.1c-.1-.1 0-.3.1-.3h.1c.1-.1.3 0 .3.1l1.1 2.1s0 .1-.1.2z"/><circle class="st21" cx="376.8" cy="98.1" r="2"/><path d="M377 82c8.9.3 16 7.5 16 16.5 0 3.5-1.1 6.8-3 9.5" style="fill:none;stroke:#05afdd;stroke-width:2;stroke-miterlimit:10"/><circle cx="390" cy="108" r="2" style="fill:#05afdd"/><path d="m210 144-1-3h-6l-1 3h-2.6l5.2-13h2.8l5 13H210v-.1.1zm-3.9-11.1-2.3 6.1h4.6l-2.3-6.1zM231 144l-1-3h-6l-1 3h-2.6l5.2-13h2.8l5 13H231v-.1.1zm-3.9-11.1-2.3 6.1h4.6l-2.3-6.1zM237 130l-3 3h6l-3-3zM237 137l3-3h-6l3 3zM249 142h11v2h-11zM257.6 141l-.7-2h-5l-.8 2H249l4.3-10h2.3l4.2 10h-2.2zm-3.1-8.1-1.9 5.1h3.9l-2-5.1z"/><path transform="rotate(-41.062 276.005 137.695)" style="fill:none;stroke:#000;stroke-width:1;stroke-miterlimit:10.0012" d="M271.9 134.2h8.2v7h-8.2z"/><path d="m275.3 143.7-5.1-6 11.8-.1zM284.9 142.4c0 .9-.8 1.6-1.7 1.6-1 0-1.7-.7-1.7-1.6 0-.9 1.7-3.7 1.7-3.7s1.7 2.8 1.7 3.7z"/><path d="M273.4 135.4c-1-1.1-1-2.7 0-3.5 1.1-1 2.7-.5 3.5.4l-1.4 1.3-2.1 1.8z" style="fill:#fff;stroke:#000;stroke-miterlimit:10"/><path class="st11" d="M284.1 141.5s0 .1.1.3c0 .1.1.2.1.4v.5c0 .2-.1.3-.2.5 0 .1-.1.1-.1.2l-.2.2c-.1 0-.2.1-.3.1h-.1s0-.1.1-.1c0 0 0-.1.1-.1 0 0 0-.1.1-.1 0 0 0-.1.1-.1v-.1l.2-.2s.1-.1.1-.2V141.5z"/><path d="M295 134h4v-4h8v4h1v-5h-9.7l-4.3 4.3V146h8v-1h-7v-11zm.7-1 2.3-2.3v2.3h-2.3z"/><path d="m310.8 145.1-2.8-2.9c.6-.8.9-1.7.9-2.7 0-2.5-2-4.5-4.5-4.5s-4.5 2-4.5 4.5 2 4.5 4.5 4.5c1.1 0 2.1-.4 2.9-1.1l2.8 2.9c.1.1.2.1.4.1.1 0 .3 0 .4-.1.1-.2.1-.5-.1-.7zm-6.4-2.1c-1.9 0-3.5-1.6-3.5-3.5s1.6-3.5 3.5-3.5 3.5 1.6 3.5 3.5-1.5 3.5-3.5 3.5z"/><path class="st26" d="m332.5 139.9-1.3-.8c.3-.7.4-1.4.4-2.2 0-.9-.2-1.7-.5-2.5l1.3-.8-1.1-1.6-1.3.8c-.9-1-2.1-1.7-3.5-1.9v-1.5h-2v1.5c-1.5.2-2.8 1-3.7 2.1l-1.3-.8-1 1.7 1.3.8c-.3.7-.4 1.4-.4 2.2 0 .9.2 1.7.5 2.5l-1.3.8 1.1 1.6 1.3-.8c.9 1 2.1 1.7 3.5 1.9v1.5h2V143c1.5-.2 2.8-1 3.7-2.1l1.3.8 1-1.8z"/><circle class="st26" cx="325.5" cy="137" r="3.5"/><circle cx="343" cy="131" r="1"/><circle cx="346" cy="131" r="1"/><circle cx="343" cy="135" r="1"/><circle cx="346" cy="135" r="1"/><circle cx="343" cy="139" r="1"/><circle cx="346" cy="139" r="1"/><circle cx="343" cy="143" r="1"/><circle cx="346" cy="143" r="1"/><path class="st1" d="M366 144.5h-9c-.3 0-.5-.2-.5-.5v-10.5h10V144c0 .3-.2.5-.5.5zM359.5 136v6M361.5 136v6M363.5 136v6M367 133.5h-11c-.3 0-.5-.2-.5-.5v-2c0-.3.2-.5.5-.5h11c.3 0 .5.2.5.5v2c0 .3-.2.5-.5.5zM364.5 130.5h-6V129c0-.3.2-.5.5-.5h5c.3 0 .5.2.5.5v1.5z"/><path d="M211.8 157.3c2 1 3.2 2.8 3.5 5.1l-4.9-.3 1.4-4.8m-.7-1.3-2.1 7 7.3.5c0-3.8-2.1-6.5-5.2-7.5z"/><path d="M206.7 158.3c.4 0 .8 0 1.2.1l-1.8 5.7-.4 1.2 1.3.1 6.3.4c-.4 3.3-3.2 5.8-6.6 5.8-3.7 0-6.7-3-6.7-6.7s3-6.6 6.7-6.6m0-1c-4.2 0-7.7 3.4-7.7 7.7 0 4.2 3.4 7.7 7.7 7.7 4.2 0 7.7-3.4 7.7-7.7v-.1l-7.3-.5 2.1-6.7c-.9-.2-1.7-.4-2.5-.4z"/><path class="st27" d="M238.8 157.3c2 1 3.2 2.8 3.5 5.1l-4.9-.3 1.4-4.8m-.7-1.3-2.1 7 7.3.5c0-3.8-2.1-6.5-5.2-7.5z"/><path class="st27" d="M233.7 158.3c.4 0 .8 0 1.2.1l-1.8 5.7-.4 1.2 1.3.1 6.3.4c-.4 3.3-3.2 5.8-6.6 5.8-3.7 0-6.7-3-6.7-6.7s3-6.6 6.7-6.6m0-1c-4.2 0-7.7 3.4-7.7 7.7 0 4.2 3.4 7.7 7.7 7.7 4.2 0 7.7-3.4 7.7-7.7v-.1l-7.3-.5 2.1-6.7c-.9-.2-1.7-.4-2.5-.4zM270 166v-8h-16v16h16v-8zm-10 0h9v3h-9v-3zm9-1h-9v-3h9v3zm-14-6h14v2h-14v-2zm4 14h-4v-11h4v11zm10 0h-9v-3h9v3z"/><path d="M300 166v-8h-16v16h16v-8zm-10 0h9v3h-9v-3zm9-1h-9v-3h9v3zm-14-6h14v2h-14v-2zm4 14h-4v-11h4v11zm10 0h-9v-3h9v3z"/><path class="st28" d="M51 187h96.9c3.6 0 6.8-2.4 7.6-5.9 1-4.9-2.6-9.1-7.3-9.1h-97c-3.6 0-6.8 2.4-7.6 5.9-1 4.8 2.7 9.1 7.4 9.1zM164.2 191H67.3c-3.6 0-6.8 2.4-7.6 5.9-1 4.9 2.6 9.1 7.3 9.1h97c3.6 0 6.8-2.4 7.6-5.9.9-4.8-2.7-9.1-7.4-9.1zM164.8 218.5c0-4.1-4-7.5-8.9-7.5H40.3c-4.9 0-8.9 3.4-8.9 7.5s4 7.5 8.9 7.5h115.5c5 0 9-3.4 9-7.5zM123.5 231H67.3c-3.6 0-6.8 2.4-7.6 5.9-1 4.9 2.6 9.1 7.3 9.1h56.2c3.6 0 6.8-2.4 7.6-5.9 1-4.8-2.7-9.1-7.3-9.1zM153 251H35.4c-3.6 0-6.8 2.4-7.6 5.9-1 4.9 2.6 9.1 7.3 9.1h117.6c3.6 0 6.8-2.4 7.6-5.9 1.1-4.8-2.6-9.1-7.3-9.1zM81.3 169h36.2c3.6 0 6.8-2.4 7.6-5.9 1-4.9-2.6-9.1-7.3-9.1H81.6c-3.6 0-6.8 2.4-7.6 5.9-1 4.8 2.6 9.1 7.3 9.1zM164.2 271H67.3c-3.6 0-6.8 2.4-7.6 5.9-1 4.9 2.6 9.1 7.3 9.1h97c3.6 0 6.8-2.4 7.6-5.9.9-4.8-2.7-9.1-7.4-9.1z"/><path class="st29" d="m68.8 216-36.3 53h133.3l-36.3-53z"/><path class="st30" d="m42 263.6 31-45.2h52.3l31 45.2z"/><path class="st31" d="m125.1 218.8 30.5 44.5H42.7l30.5-44.5h51.9m.4-.8H72.8l-31.6 46H157l-31.5-46z"/><path class="st30" d="M125.4 217.5V201l31.2 26v36z"/><path class="st31" d="m125.8 201.8 30.5 25.4v34.6l-30.5-44.4v-15.6m-.8-1.6v17.4l32 46.6v-37.3l-32-26.7z"/><path class="st30" d="M73.4 201.4h52.2v16.2H73.4z"/><path class="st31" d="M125.2 201.8v15.5H73.8v-15.5h51.4m.8-.8H73v17h53v-17z"/><path class="st30" d="m41.4 227 31.2-26v16.5L41.4 263z"/><path class="st31" d="M72.2 201.8v15.5l-30.5 44.4v-34.6l30.5-25.3m.8-1.6-32 26.7v37.3l32-46.6v-17.4z"/><path class="st11" d="M41.5 227.5h115v36h-115z"/><path class="st31" d="M156 228v35H42v-35h114m1-1H41v37h116v-37z"/><path class="st34" d="m156 262.8-7.3-28.7L42.1 228H156z"/><path class="st35" d="m17 257.6.7-3.4s3 .5 2.9 1.2 0 1.7 0 1.7l3 .8-1.9 5.2"/><path class="st35" d="m18.7 262.4 7.1 1.5-3.6 5.6-3.5 1.1-1-2.6-4.6 1.4 2-3.6M17 257.6l-3.9-1.5-1.8 3 .4 1.6"/><path class="st35" d="m15.6 266.1-7.8-3.7 9.2-4.8"/><path class="st36" d="m72.5 284-3.9 3.8 4 5.4-1.3 5.7 6.3-1.1 2.3-4.7 1.8 1.4h4.1l2.6-8.3-5.9-3.8v-2.8l-4.1-3.8-5.9 4.9v2.6l4.2 4.1 3.2-.7"/><path class="st29" d="m73 284.1 3.3 4.7L80 287l-3.4.7z"/><path class="st36" d="m178.9 243.1-5.1-2.1-2.3-2.6-1 4.6v3.5l-5-.5v3.8l1 .5v4.5l7-2.3v4.9l5.6-1-.6-3 5.4-3.9h1.6l-.6-3.6-2.7-1.1-2.1-3.9-1.6 2.8v1.8"/><path style="fill:none;stroke:#b7bec9;stroke-width:.75;stroke-linecap:round;stroke-miterlimit:10" d="m175.4 248.6-4.5-2.1"/><path class="st35" d="M141.5 287.5v2.8s-2.4.1-2.5-.5c0-.6-.2-1.3-.2-1.3l-2.5-.2.8-4.4M139.2 283.9l-5.9-.2 2-4.9 2.8-.5-.1-.8 1.1 1.8 3.4-1.7-1 3.1"/><path class="st35" d="m141.2 287.5 3.3.6 1-2.6-.6-1.3M141.2 287.5l3.7-3.3-3.9-3.6-5.2.4 2.5 4.7"/><path d="M114.6 164.8c-1.3 0-2.5.2-3.6.6-.3-5.7-5.1-10.3-10.9-10.3-5.9 0-10.7 4.7-10.9 10.5-1.3-.5-2.7-.8-4.2-.8-6 0-10.9 4.9-10.9 10.9S79 186.6 85 186.6c2.1 0 4.1-.6 5.7-1.6l8.3 40.5 10-40.4c1.6 1 3.5 1.5 5.5 1.5 6 0 10.9-4.9 10.9-10.9.1-6-4.7-10.9-10.8-10.9z" style="fill:#fff;stroke:#b7bec9;stroke-linecap:round;stroke-linejoin:round;stroke-miterlimit:10;stroke-dasharray:20,0,0,2"/><path d="M79.1 176.7c0-4.2 3.4-7.7 7.7-7.7" style="fill:#fff;stroke:#b7bec9;stroke-linecap:round;stroke-miterlimit:10;stroke-dasharray:20,2,1,2"/><path d="M92.8 166.1c0-4.2 3.4-7.7 7.7-7.7" style="fill:#fff;stroke:#b7bec9;stroke-linecap:round;stroke-miterlimit:10;stroke-dasharray:8,2,1,2"/><path class="st41" d="M111.8 168c1.1-.4 2.3-.6 3.6-.6 3.8 0 7.1 2 9 4.9-1.5-4.1-5.4-7-10-7-1 0-2.1.4-2.9.6.2.7.3 1.3.3 2.1zM92 185.2c-.2.1-.4.2-.5.3l7.7 37.5.3-1.3-7.5-36.5zM75.7 178.1c0-5.9 4.8-10.7 10.7-10.7 1.4 0 2.8.3 4.1.8.2-5.7 4.9-10.3 10.7-10.3 3.8 0 6.9 2 8.8 5-1.5-4.1-5.2-7-9.8-7-5.8 0-10.5 4.6-10.7 10.3-1.3-.5-2.6-.8-4.1-.8-5.9 0-10.7 4.8-10.7 10.7 0 2.1.6 4.1 1.7 5.8-.5-1.3-.7-2.5-.7-3.8z"/><path class="st42" d="M109.3 202.3s.8-12.2 4.7-13.1c3.4-.8 3.8 3.3 2.4 4.1M95.4 224.1s-.8-12.2-4.7-13.1c-3.4-.8-3.8 3.3-2.4 4.1"/><path class="st43" d="M94.8 242.5c0 2.6-2.1 4.7-4.7 4.7s-4.7-2.1-4.7-4.7M114.8 242.5c0 2.6-2.1 4.7-4.7 4.7s-4.7-2.1-4.7-4.7M96 253h8"/><path class="st31" d="m55.9 234.4 4.6 1.2-1 6.4 1.5-3.3 5 3-.7 2.3-2.7 1.1.1 2.1.3-1.7 2.2-.5-.4 1.7 2.3 2-1.5-2.3 1.5-5-5.4-4.5 1-2.2-4.2-2.7 1-4h-4z"/><path class="st28" d="M46.1 360H143c3.6 0 6.8-2.4 7.6-5.9 1-4.9-2.6-9.1-7.3-9.1h-97c-3.6 0-6.8 2.4-7.6 5.9-1 4.8 2.7 9.1 7.4 9.1zM159.3 364H62.4c-3.6 0-6.8 2.4-7.6 5.9-1 4.9 2.6 9.1 7.3 9.1H159c3.6 0 6.8-2.4 7.6-5.9 1.1-4.8-2.6-9.1-7.3-9.1zM159.9 391.5c0-4.1-4-7.5-8.9-7.5H35.5c-4.9 0-8.9 3.4-8.9 7.5s4 7.5 8.9 7.5H151c4.9 0 8.9-3.4 8.9-7.5zM118.6 404H62.4c-3.6 0-6.8 2.4-7.6 5.9-1 4.9 2.6 9.1 7.3 9.1h56.2c3.6 0 6.8-2.4 7.6-5.9 1.1-4.8-2.6-9.1-7.3-9.1zM148.1 424H30.5c-3.6 0-6.8 2.4-7.6 5.9-1 4.9 2.6 9.1 7.3 9.1h117.6c3.6 0 6.8-2.4 7.6-5.9 1.1-4.8-2.6-9.1-7.3-9.1zM76.4 342h36.2c3.6 0 6.8-2.4 7.6-5.9 1-4.9-2.6-9.1-7.3-9.1H76.7c-3.6 0-6.8 2.4-7.6 5.9-1 4.8 2.7 9.1 7.3 9.1z"/><path class="st29" d="m64 368-36.4 53H161l-36.4-53z"/><path class="st30" d="m37.1 415.6 31.1-45.2h52.2l31 45.2z"/><path class="st31" d="m120.2 370.8 30.5 44.5H37.8l30.5-44.5h51.9m.4-.8H68l-31.6 46h115.8l-31.6-46z"/><path class="st30" d="M120.4 369.8v-16.4l31.2 26v35.9z"/><path class="st31" d="m120.8 354.2 30.5 25.4v34.6l-30.5-44.4v-15.6m-.8-1.6V370l32 46.6v-37.3l-32-26.7z"/><path class="st30" d="M68.4 353.4h52.2v16.2H68.4z"/><path class="st31" d="M120.2 353.8v15.5H68.8v-15.5h51.4m.8-.8H68v17h53v-17z"/><path class="st30" d="m36.4 379.4 31.2-26v16.4l-31.2 45.5z"/><path class="st31" d="M67.2 354.2v15.5l-30.5 44.4v-34.6l30.5-25.3m.8-1.6-32 26.7v37.3L68 370v-17.4z"/><path class="st11" d="M36.5 379.5h115v36h-115z"/><path class="st31" d="M151 380v35H37v-35h114m1-1H36v37h116v-37z"/><path class="st34" d="m151 415.8-7.3-28.7L37.1 381H151z"/><ellipse class="st44" cx="85.8" cy="394.5" rx="3.5" ry="6.2"/><ellipse class="st31" cx="86.3" cy="396.8" rx="2" ry="3.6"/><path class="st43" d="m85.4 407.2 18-2"/><ellipse class="st44" cx="102.8" cy="394.5" rx="3.5" ry="6.2"/><ellipse class="st31" cx="103.3" cy="396.8" rx="2" ry="3.6"/><path d="m308.6 174.1 11.8-19.8c.3-.5.9-.5 1.1 0l11.8 19.8c.3.5 0 .9-.6.9H309c-.3 0-.7-.4-.4-.9z" style="fill:#ee4242"/><path class="st11" d="M320 162h2v7h-2zM320 170h2v2h-2z"/><circle class="st46" cx="384.5" cy="137.5" r="5.1"/><path class="st46" d="m386.9 137.5-4.9-.1"/><path class="st47" d="m379 160 3 3h-3zM389.5 155.4 383 162l-3-3 6.5-6.6z"/><circle cx="346" cy="165" r="6" style="fill:#e77d7f"/><path class="st49" d="M346 161v5M346 167v2"/><path class="st50" d="m364.8 161.6 1.5-1.5c1-1 2.6-1 3.6 0h0c1 1 1 2.6 0 3.6l-1.5 1.5c-1 1-2.6 1-3.6 0h0"/><path class="st50" d="m366.3 167.2-1.5 1.5c-1 1-2.6 1-3.6 0h0c-1-1-1-2.6 0-3.6l1.5-1.5c1-1 2.6-1 3.6 0h0"/><path d="M396.8 1125.6c-.3-.3-.9-.3-1.2 0l-3.6 3.6-3.6-3.6c-.3-.3-.9-.3-1.2 0-.3.3-.3.9 0 1.2l3.6 3.6-3.6 3.6c-.3.3-.3.9 0 1.2.3.3.9.3 1.2 0l3.6-3.6 3.6 3.6c.3.3.9.3 1.2 0s.3-.9 0-1.2l-3.6-3.6 3.6-3.6c.3-.3.3-.9 0-1.2z" style="fill:#f78985" transform="translate(0 -952.362)"/><path d="M372 182.5c-.3 0-.5-.1-.7-.3l-3.1-3.1c-.4-.4-.4-.9 0-1.3s.9-.4 1.3 0l2.4 2.4 5.4-5c.4-.4.9-.3 1.3 0 .4.4.4.9 0 1.3l-6.1 5.6c0 .3-.3.4-.5.4z" style="fill:#66d881"/><path class="st53" d="M340.5 65v9M345 69.5h-9"/><path d="M391.1 196H373v2h18.1l-2.9 2.9 1.4 1.4 4.3-4.3h.1v-.1l.9-.9-.9-.9v-.1h-.1l-4.3-4.3-1.4 1.4zM357.5 207.1l5.1-5.1-5.1-5.1-1.4 1.4 2.8 2.8H344c-1.2 0-2.1-1-2.1-2.1v-8.1H340v8.1c0 2.2 1.8 4 4 4h14.9l-2.8 2.8 1.4 1.3zM347.7 189.7 345 187h14.9c1.2 0 2.1 1 2.1 2.1v7.9h2v-8c0-2.2-1.8-4-4-4h-15.1l2.8-2.7-1.4-1.3-5 5.1 5.1 5 1.3-1.4z"/><path class="st54" d="M311.1 196H293v2h18.1l-2.9 2.9 1.4 1.4 4.3-4.3h.1v-.1l.9-.9-.9-.9v-.1h-.1l-4.3-4.3-1.4 1.4zM277.5 207.1l5.1-5.1-5.1-5.1-1.4 1.4 2.8 2.8H264c-1.2 0-2.1-1-2.1-2.1v-8.1H260v8.1c0 2.2 1.8 4 4 4h14.9l-2.8 2.8 1.4 1.3zM267.7 189.7 265 187h14.9c1.2 0 2.1 1 2.1 2.1v7.9h2v-8c0-2.2-1.8-4-4-4h-15.1l2.8-2.7-1.4-1.3-5 5.1 5.1 5 1.3-1.4z"/><path class="st9" d="M377.2 230.5c.1.6.4 1.4.8 1.8.5.4 8.7.4 8.9 0 .5-.4.8-1.1.8-1.8 0-2.2-2.4-3.9-5.2-4-3 0-5.3 1.8-5.3 4zM382.5 220.5c-1.8 0-3 1.4-3 3 0 1.7 1.2 3 3 3s3-1.4 3-3c0-1.7-1.2-3-3-3zM390 224.5c1.2 0 2 .9 2 2s-.8 2-2 2-2-.9-2-2 .8-2 2-2zM389.5 232.5c1.8.1 3.4.1 3.5-.1.4-.3.5-.8.6-1.2 0-1.5-1.7-2.7-3.7-2.7M375 224.6c-1.2 0-2 .9-2 2s.8 2 2 2 2-.9 2-2-.8-2-2-2zM375.6 232.6c-1.8.1-2.6 0-3.5-.1s-.7-.7-.6-1.2c.3-.9 1.7-2.7 3.7-2.7"/><g class="st55"><path class="st11" d="M350.4 229.9c-.3.3-.6.6-1 .8s-.7.3-1.1.3-.8-.1-1.2-.4-.7-.6-.9-1.1-.4-1-.4-1.6c0-.7.2-1.5.6-2.2s.8-1.3 1.4-1.6c.6-.4 1.1-.5 1.6-.5.4 0 .8.1 1.1.3.4.2.7.5.9.9l.2-1.1h1.2l-1 4.6c-.1.6-.2 1-.2 1.1s0 .2.1.3.2.1.3.1c.2 0 .6-.1 1-.4.5-.4.9-.9 1.2-1.5.3-.6.5-1.2.5-1.9 0-.8-.2-1.5-.6-2.1s-1-1.2-1.7-1.6-1.6-.6-2.6-.6c-1.1 0-2 .2-2.9.7s-1.6 1.2-2.1 2.1c-.5.9-.7 1.9-.7 3s.2 2.1.7 2.9 1.2 1.4 2.1 1.8c.9.4 1.9.6 3.1.6s2.2-.2 3-.6 1.4-.9 1.8-1.5h1.2c-.2.5-.6 1-1.2 1.5s-1.2.9-2 1.2-1.7.4-2.8.4c-1 0-1.9-.1-2.8-.4s-1.6-.7-2.2-1.2-1.1-1.1-1.4-1.8c-.4-.9-.6-1.8-.6-2.8 0-1.1.2-2.2.7-3.2.6-1.2 1.3-2.2 2.4-2.8 1-.7 2.3-1 3.7-1 1.1 0 2.1.2 3 .7s1.6 1.2 2.1 2.1c.4.8.7 1.6.7 2.6 0 1.3-.5 2.5-1.4 3.5-.8.9-1.7 1.4-2.7 1.4-.3 0-.6 0-.8-.1-.2-.1-.3-.2-.4-.4.1 0 .1-.2.1-.5zM347 228c0 .6.1 1.1.4 1.5.3.3.6.5 1 .5.3 0 .5-.1.8-.2.3-.2.6-.4.8-.7.3-.3.5-.7.6-1.1.2-.5.2-.9.2-1.4 0-.6-.2-1.1-.5-1.4s-.7-.5-1.1-.5c-.3 0-.6.1-.8.2-.3.1-.5.4-.7.7s-.4.7-.6 1.2c0 .4-.1.8-.1 1.2z"/></g><path class="st9" d="M310.5 220.5h16v13h-16zM311 224.5h15M312 226.5h3M312 228.5h3M316 226.5h5M316 228.5h5"/><path class="st49" d="M312 231h4"/><path class="st9" d="M324 222.5h1M322 222.5h1M284.8 225.4c-.1-.4-.2-.9-.2-1.3 0-2.5 2-4.5 4.5-4.5s4.5 2 4.5 4.5-2 4.5-4.5 4.5c-.7 0-1.4-.2-2-.5l-.6-.4-2 1.8v2h-1.9v2h-3v-3.1l5.4-5.4"/><circle class="st11" cx="290.5" cy="222.5" r="1.5"/><path class="st9" d="M254 232.5h-5.5v-12h11v2.5M250 223.5h1M252 223.5h5M250 225.5h1M252 225.5h5M250 227.5h1M252 227.5h5M250 229.5h1M252 229.5h4"/><circle class="st11" cx="260" cy="227" r="2"/><path class="st11" d="M264 234h-8c0-2.2 1.8-4 4-4s4 1.8 4 4z"/><path class="st13" d="M220.5 228.5c0 .6-.4 1-1 1h-4c-1.1 0-2-.9-2-2v-2c0-1.1.9-2 2-2h4c.6 0 1 .4 1 1M223.5 224.5c0-.6.4-1 1-1h4c1.1 0 2 .9 2 2v2c0 1.1-.9 2-2 2h-4c-.6 0-1-.4-1-1M218 226.4h8"/><path class="st9" d="M380 261.5h-5.8c-.4 0-.8-.3-.8-.8v-4.5c0-.4.3-.8.8-.8h15.5c.4 0 .8.3.8.8v4.5c0 .4-.3.8-.8.8H386"/><path class="st11" d="m383.7 263 1.5 2.7-1.1.7-1.5-2.7-1.5 2v-6.6l5.3 4-2.7-.1z"/><path class="st9" d="M351.5 260.5h5v5h-5zM344.5 260.5h5v5h-5zM351.5 253.5h5v5h-5z"/><path transform="rotate(-23.234 345.803 255.197)" style="fill:none;stroke:#fff;stroke-width:1;stroke-miterlimit:10" d="M343.3 252.7h5v5h-5z"/><path class="st11" d="M311 268h15v-17h-15v17zm1-16h13v15h-13v-15z"/><path class="st11" d="M314 254h9v3h-9zM314 258h3v3h-3zM314 262h3v3h-3zM318 258h5v1h-5zM318 260h4v1h-4zM318 262h5v1h-5zM318 264h4v1h-4z"/><path class="st9" d="M292.5 266.5h-12v-15h12z"/><path class="st11" d="M284.6 258.6c-.5 0-1.1-.3-1.4-.6l-.4.7c.3.3.8.6 1.3.7v.7h1v-.7c.8-.1 1.3-.7 1.3-1.4 0-1.8-2.5-1.2-2.5-2 0-.3.3-.6.8-.6s1 .2 1.2.5l.4-.7c-.3-.3-.7-.5-1.2-.6v-.6h-1v.7c-.7.2-1.1.7-1.1 1.3 0 1.7 2.5 1.1 2.5 2-.1.3-.4.6-.9.6zM288 255h2v1h-2zM288 257h2v1h-2zM287 259h3v1h-3zM283 261h7v1h-7zM283 263h7v1h-7z"/><path class="st9" d="M250.5 262.5v-12h10v12h-10z"/><path class="st9" d="M258.5 262.5v2h-10v-12h2M253 253.5h5M253 255.5h5M253 257.5h5M253 259.5h3M255.5 264v4"/><path class="st13" d="M256 268.5h5.5M249.5 268.5h5"/><path class="st9" d="M254.5 267.5h2v2h-2zM219 266.5h-3.5v-12l3-3h9v7.5M221 254.5h4M218 256.5h7M218 258.5h7M218 260.5h1M218 262.5h1"/><path class="st57" d="m230.1 260.5.1.1c.2.3.2.8-.2 1l-4.2 2.9c-.1.1-.3.1-.4.1-.2 0-.3 0-.4-.1l-4.1-2.9c-.3-.2-.4-.7-.2-1 0-.1.1-.1.2-.2h-.4v6h10v-6h-.4v.1z"/><path class="st57" d="M229.1 260.5h-7.3l3.7 2.6z"/><path class="st9" d="M218.5 251.5v3h-3"/><g class="st55"><path class="st11" d="M382.2 296.4v-1.1c-.5-.1-1-.2-1.3-.4s-.6-.4-.9-.8-.4-.8-.4-1.4l1.1-.2c.1.6.2 1 .4 1.2.3.4.7.6 1.1.6v-3.4c-.4-.1-.9-.2-1.3-.5-.3-.2-.6-.4-.8-.8s-.3-.7-.3-1.1c0-.8.3-1.4.8-1.8.4-.3.9-.5 1.6-.6v-.5h.6v.5c.6.1 1.1.2 1.5.5.5.4.7.9.8 1.6l-1.1.2c-.1-.4-.2-.7-.4-1s-.5-.4-.8-.4v3c.5.1.9.2 1.1.3.3.1.6.3.8.5s.4.5.5.7.2.6.2.9c0 .7-.2 1.3-.7 1.8s-1.1.8-1.8.8v1.1h-.7v.3zm0-9.2c-.4.1-.7.2-1 .5s-.4.6-.4.9c0 .4.1.7.3.9s.5.4 1 .6v-2.9h.1zm.7 7.3c.4-.1.8-.2 1-.5s.4-.7.4-1.1-.1-.7-.3-.9-.6-.4-1.1-.6v3.1z"/></g><circle class="st9" cx="382" cy="291" r="10.5"/><circle class="st9" cx="382" cy="291" r="8.5"/><path class="st9" d="M351 292.5h4.5l4 5h-18l4-5h4.7"/><path class="st11" d="M350.5 281c-2.6 0-4.5 2.2-4.5 4.8 0 1 .6 2.8 1.9 5.3.9 1.7 2.6 4.4 2.6 4.4s1.7-2.6 2.6-4.4c1.4-2.6 1.9-4.2 1.9-5.3 0-2.7-1.9-4.8-4.5-4.8zm0 5.7c-.9 0-1.7-.8-1.7-1.7s.8-1.7 1.7-1.7 1.7.8 1.7 1.7-.8 1.7-1.7 1.7zM322.9 282l-8.9 9h5l-5 7.9 9-9.9h-4z"/><path class="st9" d="M277.5 287.5h12v8h-12zM278 290.5h5M284 290.5h5M283 291.5h1M281.5 285.5h4v2h-4zM294.5 289v7"/><path class="st11" d="m291.9 289 2.5-3 2.5 3h-5z"/><path d="M351 88.5h-1c-.2 0-1-.1-1.3-.9s.1-1.3.3-1.5l.7-.7-2.1-2.1-.7.7c-.1.1-.8.6-1.6.3s-.9-1-.9-1.3v-1h-3v1c0 .2-.1 1-.9 1.3s-1.3-.1-1.5-.3l-.7-.7-2.1 2.1.7.7c.2.2.6.8.3 1.5-.3.8-1 .8-1.3.8h-1v3h1c.2 0 1 .1 1.3.9s-.1 1.3-.3 1.5l-.7.7 2.1 2.1.7-.7c.1-.1.8-.6 1.5-.3.8.3.9 1 .9 1.3v1h3v-1c0-.2.1-1 .9-1.3s1.3.1 1.5.3l.7.7 2.1-2.1-.6-.6c-.2-.2-.6-.8-.3-1.6s1-.8 1.3-.9h1v-2.9zm-8 5.4c-2.2 0-4-1.8-4-4s1.8-4 4-4 4 1.8 4 4c0 2.3-1.8 4-4 4z" style="fill:#777"/><path class="st9" d="m253.8 288.6-2.2-.5-1.1-1.8-.1-.1-.1.1-1 1.9-2.2.4h-.1v.1l1.4 1.7-.2 2.1v.1h.1l2-.9 2 .9h.1v-.1l-.2-2.2 1.6-1.7c0 .1 0 .1 0 0zM261.9 292.7c0-.1 0-.1 0 0l-2.2-.5-1.1-1.8-.1-.1-.1.1-1 1.9-2.2.4h-.1v.1l1.4 1.7-.2 2.1v.1h.1l2-.9 2 .9h.1v-.1l-.2-2.2 1.6-1.7zM246.1 292.7c0-.1 0-.1 0 0l-2.2-.5-1.1-1.8-.1-.1-.1.1-1 1.9-2.2.4h-.1v.1l1.4 1.7-.2 2.1v.1h.1l2-.9 2 .9h.1v-.1l-.2-2.2 1.6-1.7z"/><path d="m330 188-5-5h5z"/><path class="st1" d="m329.1 184-4.6 4.6"/><path style="fill:none;stroke:#797979;stroke-width:.5;stroke-miterlimit:10" d="M338 325h22"/><path class="st60" d="M351.8 311.6c.2 0 .4.2.4.4s-.2.4-.4.4h-2.3v2.1c5.4.2 9.7 4.5 9.9 9.9h.1c.9 0 1.7.8 1.7 1.7s-1.3 2-2.2 2h-20c-1.3 0-2-1-2-2 0-.9.8-1.7 1.7-1.7h.1c.2-5.4 4.5-9.7 9.9-9.9v-2.1h-2.3c-.2 0-.4-.2-.4-.4s.2-.4.4-.4h5.4m0-.5h-5.4c-.5 0-.9.4-.9.9s.4.9.9.9h1.8v1.1c-5.2.4-9.4 4.6-9.9 9.9-1 .2-1.8 1.1-1.8 2.2 0 1.2.9 2.5 2.5 2.5h20c1.1 0 2.7-1.2 2.7-2.5 0-1.1-.8-2-1.8-2.2-.4-5.2-4.6-9.4-9.9-9.9v-1.1h1.8c.5 0 .9-.4.9-.9s-.4-.9-.9-.9zM392.9 312H388v-2c-.1.1-12 0-12 0v2h-5.6c-.2 0-.4.6-.4.8v16.9c0 .2.1.2.4.2H394c.2 0 0 .2 0 0V312h-1.1zm-15.9-1h10v1h-10v-1zm-6 2h22v5h-9.6l-.1-.1c0-.1-.1-.1-.1-.2-.1-.1-.1-.2-.2-.3l-.2-.2c-.1-.1-.2-.2-.4-.2-.1 0-.1-.1-.2-.1-.2-.1-.4-.1-.7-.1-.2 0-.5.1-.7.1-.1 0-.1.1-.2.1-.1.1-.3.1-.4.2l-.2.2c-.1.1-.2.2-.2.3 0 .1-.1.1-.1.2s-.1.1-.1.1H371v-5zm9.6 5.5c0-.6.5-1 1-1 .6 0 1 .4 1 1v2.8c0 .6-.5 1-1 1-.6 0-1-.4-1-1v-2.8zM393 329h-22v-10h9v2.3c0 1 .5 1.8 1.5 1.8s1.5-.8 1.5-1.8V319h10v10z"/><path style="fill:none;stroke:#72bafc;stroke-width:.5;stroke-miterlimit:10" d="M338 354h22"/><path class="st62" d="M351.8 340.6c.2 0 .4.2.4.4s-.2.4-.4.4h-2.3v2.1c5.4.2 9.7 4.5 9.9 9.9h.1c.9 0 1.7.8 1.7 1.7s-1.3 2-2.2 2h-20c-1.3 0-2-1-2-2 0-.9.8-1.7 1.7-1.7h.1c.2-5.4 4.5-9.7 9.9-9.9v-2.1h-2.3c-.2 0-.4-.2-.4-.4s.2-.4.4-.4h5.4m0-.5h-5.4c-.5 0-.9.4-.9.9s.4.9.9.9h1.8v1.1c-5.2.4-9.4 4.6-9.9 9.9-1 .2-1.8 1.1-1.8 2.2 0 1.2.9 2.5 2.5 2.5h20c1.1 0 2.7-1.2 2.7-2.5 0-1.1-.8-2-1.8-2.2-.4-5.2-4.6-9.4-9.9-9.9v-1.1h1.8c.5 0 .9-.4.9-.9s-.4-.9-.9-.9zM392.9 341H388v-2c-.1.1-12 0-12 0v2h-5.6c-.2 0-.4.6-.4.8v16.9c0 .2.1.2.4.2H394c.2 0 0 .2 0 0V341h-1.1zm-15.9-1h10v1h-10v-1zm-6 2h22v5h-9.6l-.1-.1c0-.1-.1-.1-.1-.2-.1-.1-.1-.2-.2-.3l-.2-.2c-.1-.1-.2-.2-.4-.2-.1 0-.1-.1-.2-.1-.2-.1-.4-.1-.7-.1-.2 0-.5.1-.7.1-.1 0-.1.1-.2.1-.1.1-.3.1-.4.2l-.2.2c-.1.1-.2.2-.2.3 0 .1-.1.1-.1.2s-.1.1-.1.1H371v-5zm9.6 5.5c0-.6.5-1 1-1 .6 0 1 .4 1 1v2.8c0 .6-.5 1-1 1-.6 0-1-.4-1-1v-2.8zM393 358h-22v-10h9v2.3c0 1 .5 1.8 1.5 1.8s1.5-.8 1.5-1.8V348h10v10z"/><path class="st63" d="M435.5 7.3V15c0 6.9-5.6 12.5-12.5 12.5h0c-6.9 0-12.5-5.6-12.5-12.5V7.3"/><path class="st64" d="M478.5 7.3V15c0 6.9-5.6 12.5-12.5 12.5h0c-6.9 0-12.5-5.6-12.5-12.5V7.3"/><path class="st63" d="m404.9 47.6 7.5 16.3 7.5-16.2 7.6 16.4 7.4-16.1"/><path class="st64" d="m449.9 47.6 7.5 16.3 7.5-16.2 7.6 16.4 7.4-16.1"/><path class="st65" d="M453 83v20"/><path class="st66" d="M413 83v20"/><path class="st65" d="M453 164v10M463 164v10M473 164v10"/><path class="st66" d="M413 164v10M423 164v10M433 164v10"/><path class="st65" d="M474 191v20M464 196v15M454 201v10"/><path class="st66" d="M433 191v20M423 196v15M413 201v10"/><path d="M14 25H9v-5H8v5H3v1h5v5h1v-5h5z"/><path class="st67" d="M35.3 35.9c-.2 0-.3 0-.4-.1l-5-2.8-5 2.8c-.2.1-.3.1-.4.1-.2 0-.3-.1-.4-.1H24v-.1c-.2-.2-.3-.5-.2-.7l1-5.9-4.1-4.2c-.2-.2-.3-.5-.2-.7.1-.3.3-.5.6-.5l5.6-.9 2.5-5.4c.1-.2.3-.4.6-.4s.5.2.6.4l2.6 5.4 5.7.9c.3 0 .5.2.6.5.1.2 0 .5-.2.7L35 29.1l1 6c.1.2 0 .4-.2.7l-.1.2h-.2c0-.1-.1-.1-.2-.1z"/><path class="st11" d="M29.9 17.4c.1 0 .2.1.2.1l2.7 5.7 6 .9c.1 0 .2.1.2.1 0 .1 0 .2-.1.2l-4.3 4.4 1 6.2c0 .1 0 .2-.1.2h-.2L30 32.3l-5.3 2.9h-.1c-.1 0-.1 0-.1-.1-.1-.1-.1-.1-.1-.2l1-6.2-4.4-4.2c-.1-.1-.1-.1-.1-.2s.1-.1.2-.1l6-.9 2.7-5.7c-.1-.2 0-.2.1-.2m0-1c-.5 0-.9.3-1.1.7l-2.4 5.2-5.4.8c-.5 0-.9.4-1 .8s0 .9.3 1.2l4 4.1-.9 5.7c-.1.4 0 .8.3 1.1l.1.1.1.1c.1 0 .3.2.6.2s.5-.1.7-.2l4.8-2.6 4.8 2.6c.2.1.4.2.6.2h.6l.3-.3c.3-.3.4-.7.3-1.1l-.9-5.7 3.9-4.1c.3-.3.4-.7.3-1.1-.1-.5-.5-.9-1-1l-5.4-.8-2.5-5.2c-.2-.4-.6-.7-1.1-.7z"/><path class="st66" d="M433 140v-20"/><path class="st65" d="M475 140v-20"/><path class="st6" d="M255.8 329.4c-.2 0-.3 0-.4-.1l-5-2.8-5 2.8c-.2.1-.3.1-.4.1-.2 0-.3-.1-.4-.1h-.1v-.1c-.2-.2-.3-.5-.2-.7l1-5.9-4.1-4.2c-.2-.2-.3-.5-.2-.7.1-.3.3-.5.6-.5l5.6-.9 2.5-5.4c.1-.2.3-.4.6-.4s.5.2.6.4l2.6 5.4 5.7.9c.3 0 .5.2.6.5.1.2 0 .5-.2.7l-4.1 4.2 1 6c.1.2 0 .4-.2.7l-.1.2h-.2c-.1-.1-.1-.1-.2-.1z"/><path class="st11" d="M250.4 310.9c.1 0 .2.1.2.1l2.7 5.7 6 .9c.1 0 .2.1.2.1 0 .1 0 .2-.1.2l-4.3 4.4 1 6.2c0 .1 0 .2-.1.2h-.2l-5.3-2.9-5.3 2.9h-.1c-.1 0-.1 0-.1-.1-.1-.1-.1-.1-.1-.2l1-6.2-4.4-4.2c-.1-.1-.1-.1-.1-.2s.1-.1.2-.1l6-.9 2.7-5.7c-.1-.2-.1-.2.1-.2m0-1c-.5 0-.9.3-1.1.7l-2.4 5.2-5.4.8c-.5 0-.9.4-1 .8s0 .9.3 1.2l4 4.1-.9 5.7c-.1.4 0 .8.3 1.1l.1.1.1.1c.1 0 .3.2.6.2s.5-.1.7-.2l4.8-2.6 4.8 2.6c.2.1.4.2.6.2h.6l.3-.3c.3-.3.4-.7.3-1.1l-.9-5.7 3.9-4.1c.3-.3.4-.7.3-1.1-.1-.5-.5-.9-1-1l-5.4-.8-2.5-5.2c-.3-.5-.6-.7-1.1-.7z"/><path d="M322.7 315.5c2.8 1.9 3.8 5.6 2.2 8.6-1.7 3.3-5.7 4.5-8.9 2.7-3.3-1.7-4.5-5.7-2.7-8.9.9-1.7 2.4-2.9 4.2-3.3l.7-.2" style="fill:none;stroke:#000;stroke-width:1.1;stroke-miterlimit:10"/><path d="m316.1 312.4 4.1 1.7-2.4 3.7z"/><path style="fill:none;stroke:#000;stroke-width:1.1377;stroke-miterlimit:10" d="M318.5 319v3.5h3.5"/><path style="fill:#2ea73f" d="m421 224.9 3.2 3.1 4.5-.6.8 4.4 4 2.1-2 4.1 2 4.1-4 2.1-.8 4.4-4.5-.6-3.2 3.1-3.2-3.1-4.5.6-.8-4.4-4-2.1 2-4.1-2-4.1 4-2.1.8-4.4 4.5.6z"/><path style="fill:none;stroke:#fff;stroke-width:2;stroke-linecap:round;stroke-linejoin:round;stroke-miterlimit:10" d="m416.7 238.3 2.6 2.7 6-6"/><circle cx="242" cy="187" r="6" style="fill:#73c17e"/><path class="st73" d="m239.2 187 2 1.8 3.8-3.8"/><circle cx="242" cy="207" r="6" style="fill:#f74d4d"/><path class="st73" d="m240.1 208.9 3.8-3.8M243.9 208.9l-3.8-3.8"/><circle class="st46" cx="451.5" cy="234.5" r="8"/><path class="st46" d="m448.5 237.6 6-6M454.5 237.6l-6-6"/><path class="st75" d="M459.1 299.1c-4 6.5-11.1 10.5-19.4 10.5-12.6 0-22.8-10.2-22.8-22.8M420.9 274.2c4-6.2 11.1-10.2 18.8-10.2 12.6 0 22.8 10.2 22.8 22.8"/><path class="st75" d="m453.6 281.6 8.9 7 7.4-9.2M425.9 290.8l-9.9-6.2-6.1 10.2"/><path style="fill:#313949" d="m443.7 275.3-8.2 11.8 4.1 1-4.1 10.2 10.4-11.7-4.4-1.8z"/><path d="M441.7 325.1h-.2v21.1H461c.1-.6.1-1.2.1-1.8 0-5.9-2.7-11.2-6.9-14.8-3.3-2.8-7.7-4.5-12.5-4.5z" style="fill:#f7f7f7"/><path style="fill:none;stroke:#313949;stroke-width:2;stroke-linecap:round;stroke-linejoin:round;stroke-miterlimit:10" d="M441.5 332.1v14.4H453"/><path class="st75" d="M461.1 357.1c-4 6.5-11.1 10.5-19.4 10.5-12.6 0-22.8-10.2-22.8-22.8M422.9 332.2c4-6.2 11.1-10.2 18.8-10.2 12.6 0 22.8 10.2 22.8 22.8"/><path class="st75" d="m455.6 339.6 8.9 7 7.4-9.2M427.9 348.8l-9.9-6.2-6.1 10.2"/><path class="st11" d="m272.4 326.8-.4-5.9h1.8l-.4 5.9c0 .1-.1.3-.2.3-.2.2-.6.2-.8 0 .1 0 .1-.2 0-.3zm-3.1-6.8c-.2.2-.2.6 0 .8.1.1.3.2.4.2h6.6c.3 0 .6-.3.6-.6 0-.2-.1-.3-.2-.4l-1.6-1.6v-2.9h.5c.4 0 .7-.3.7-.7v-.1c-.1-.3-.4-.6-.7-.6h-5c-.4 0-.7.2-.7.6-.1.4.2.8.6.8h.6v2.9l-1.8 1.6z"/><path d="m290.7 320-1.6-1.6v-2.9h.5c.4 0 .7-.3.7-.7v-.1c-.1-.3-.4-.6-.7-.6h-5c-.4 0-.7.2-.7.6-.1.4.2.8.6.8h.6v2.9l-1.6 1.6c-.2.2-.2.6 0 .8.1.1.3.2.4.2h6.6c.3 0 .6-.3.6-.6-.3-.2-.3-.3-.4-.4z"/><path d="M286.4 326.8c0 .1.1.2.1.3.2.2.6.2.8 0 .1-.1.2-.2.2-.3l.4-5.9h-1.8l.3 5.9z"/><path class="st1" d="M337.4 118.4h-2.6c-.8 0-1.4-.6-1.4-1.4v-10.2c0-.8.6-1.4 1.4-1.4H345c.8 0 1.4.6 1.4 1.4v2.6"/><path class="st1" d="M349 122.4h-10.2c-.8 0-1.4-.6-1.4-1.4v-10.2c0-.8.6-1.4 1.4-1.4H349c.8 0 1.4.6 1.4 1.4V121c0 .8-.6 1.4-1.4 1.4z"/><path class="st14" d="m224.5 181.3 3 3.3-3 3.3"/><path class="st14" d="M213 189.5s.2-4.3 3.7-5.1h10.5M216.5 196.8l-3-3.3 3-3.3"/><path class="st14" d="M227.5 188.4s-.2 4.3-3.7 5.1h-10.5"/><circle cx="299.5" cy="349.5" r="7" style="fill:none;stroke:#ef6567;stroke-width:.9333;stroke-miterlimit:10"/><path style="fill:none;stroke:#ef6567;stroke-miterlimit:10" d="M296 349.5h7"/><path d="M325 349h-3v-3h-1v3h-3v1h3v3h1l-.1-3h3.1v-1z" style="fill:#1bb664"/><circle cx="321.5" cy="349.5" r="7" style="fill:none;stroke:#1bb664;stroke-width:.9333;stroke-miterlimit:10"/><path class="st14" d="M210 204.5h16M226 212.5h-16M223 201.5l7 7-7 7"/><path class="st83" d="M274.5 347.5v6M279.5 347.5v6M284.5 347.5v6"/><g id="surface1"><path d="M224.5 282h-6.2l-1.5-1H213c-.8 0-1 1.5-1 1.5v9c0 .8.7 1.5 1.5 1.5h11.4c.6 0 1.1-.5 1.1-1.1v-8.4c0-.8-.7-1.5-1.5-1.5z" style="fill:#ffa000"/><path d="M225.7 285h-9.8c-.7 0-1.3.5-1.4 1.2l-1.2 6.8h11.5c.7 0 1.3-.5 1.4-1.2l.9-5.1c.2-.9-.5-1.7-1.4-1.7z" style="fill:#ffca28"/></g><g id="surface1_1_"><path d="M226 321h-12v-16h8.2l3.8 3.8V321z" style="fill:#cfd95b"/><path d="M225.6 309H222v-3.5l3.6 3.5z" style="fill:#f5f7e1"/></g><g class="st55"><path class="st88" d="M218 310.1h.9v4.5c0 1.8-.9 2.3-2 2.3-.3 0-.7-.1-.9-.2l.1-.7c.2.1.4.1.7.1.8 0 1.2-.3 1.2-1.7v-4.3zM220.2 316c.3.2.7.3 1.2.3.6 0 .9-.3.9-.7 0-.4-.2-.6-.9-.9-.9-.3-1.3-.8-1.3-1.4 0-.8.6-1.4 1.7-1.4.5 0 .9.1 1.2.3l-.2.6c-.2-.1-.5-.3-1-.3s-.8.3-.8.7c0 .4.3.6.9.8.8.3 1.3.7 1.3 1.5s-.7 1.4-1.8 1.4c-.5 0-1-.1-1.4-.3l.2-.6z"/></g><g id="surface1_2_"><path d="M226 347h-12v-16h8.2l3.8 3.8V347z" style="fill:#90caf9"/><path d="M225.6 335H222v-3.6l3.6 3.6z" style="fill:#e1f5fe"/></g><path class="st1" d="M257 349.5h-11c-.8 0-1.5-.7-1.5-1.5v-6c0-.8.7-1.5 1.5-1.5h11c.8 0 1.5.7 1.5 1.5v6c0 .8-.7 1.5-1.5 1.5zM247 353.5h9M245 341.5h13M245 342.5h13"/><path d="m247 356-3-2.5 3-2.5v5z" id="navi_down_solid_2_"/><path d="m256 351 3 2.5-3 2.5v-5z" id="navi_down_solid_1_"/><path d="m307.3 372.7-4.6-5.2-.4-.4-.3-.3c-1.2-.9-2.9-1-3.9-.1-.6.4-1 1.2-1 1.9 0 .6.1 1.4.5 1.9l-2.7 2.4 5.4 6.1 7-6.3zm-8.5-5.3c.3-.3.6-.4 1.1-.4s1 .2 1.3.4l-2.7 2.4c-.2-.3-.3-.8-.3-1.2 0-.6.2-.9.6-1.2zm7 5.3h-9.1l4-3.4.2-.2.6-.5.4-.3 3.9 4.4zM308.4 373.8s-1.6 2.9-1.6 3.8.8 1.6 1.6 1.6c.9 0 1.6-.8 1.6-1.6s-1.6-3.8-1.6-3.8zM319 378h12v2h-12zM328.7 377l-.9-2.3h-5.5l-.9 2.3H319l4.8-12h2.6l4.7 11.9h-2.4v.1zm-3.6-9.9-2.1 5.7h4.3l-2.2-5.7zM215 356h2v14h-2zM219 358h11v4h-11zM219 364h7v4h-7zM271 365h14v2h-14zM279 369h4v11h-4zM273 369h4v7h-4zM257 365h2v14h-2zM244 367h11v4h-11zM248 373h7v4h-7z"/><circle cx="423" cy="103" r="2"/><circle cx="433" cy="103" r="2"/><circle cx="413" cy="140" r="2"/><circle cx="423" cy="140" r="2"/><circle class="st67" cx="455" cy="140" r="2"/><circle class="st67" cx="465" cy="140" r="2"/><circle class="st67" cx="463" cy="103" r="2"/><circle class="st67" cx="473" cy="103" r="2"/><path class="st11" d="M454.6 394.3c-.5-.9-.7-1.8-.9-2.5-.2-.8-.3-1.7-.4-2.5v-.6h-.1c-.4.1-.9.2-1.5.5-.4.2-.9.4-1.3.9-.4.4-.6 1-.7 1.6-.1 1.1.4 1.9.6 2.3.3.4.6 1 1.3 1.3.5.2 1 .2 1.4.1.4 0 .7-.1 1-.2.2-.1.5-.1.8-.2-.1-.1-.1-.2-.2-.4.1-.1 0-.2 0-.3zM466.6 380.4l-.3.3c-.1.1-.2.3-.4.4-.7.6-1.4 1.3-2.1 1.9-.9.8-1.7 1.4-2.8 2.1-.7.5-1.4.8-2.7 1.5-.9.5-1.5.8-2.4 1.2l-.3.1c-.5.2-.8.4-1.2.5v.7c.1.9.2 1.7.4 2.6.2.8.5 1.7 1 2.7.1.1.1.2.2.3.1.1.1.2.2.3.8 0 1.6 0 2.7-.1 1-.1 2.2-.2 3.5-.2 2.5 0 6.9 1.2 8.2 1.4.1-3-.3-6-1.1-8.9-.7-2.4-1.7-4.7-2.9-6.8zM473.1 380.7c-.3-.1-.6 0-.7.2-.1.3 0 .5.2.7 2.4 1.1 4 3.6 4 6.4 0 1.4-.4 2.7-1.1 3.9-.1.2-.1.5.2.7.1 0 .2.1.3.1.2 0 .3-.1.5-.2.8-1.3 1.3-2.8 1.3-4.4-.1-3.2-1.9-6.1-4.7-7.4z"/><path class="st11" d="M472.1 383c-.3-.1-.6 0-.7.2-.1.3 0 .5.2.7 1.5.7 2.6 2.3 2.6 4.1 0 1-.3 2-.9 2.8-.2.2-.1.5.1.7.1.1.2.1.3.1.2 0 .3-.1.4-.2.7-.9 1.2-2.1 1.2-3.4 0-2.1-1.2-4.1-3.2-5zM464.2 401.8c0-.1-.1-.2-.2-.4 0-.1-.1-.2-.1-.4-.4-1.1-.4-1.4-.4-1.6s.1-.4.2-.9c.1-.2.1-.4.2-.6.1-.3.2-.5.2-.8v-.4c0-.2-.1-.5-.1-.7-.6-.1-1.1-.1-1.6-.1-1.3 0-2.4.1-3.5.2-1 .1-1.9.2-2.7.1l.3.4c0 .1.2.4.4.8.8 1.6 2.4 5.2 2.8 5.8.5.7.9.9 1.2 1 .2.1.5.1.8.1s.6-.1 1-.2c.8-.3 1.4-.8 1.5-1.4v-.4c.1-.1 0-.2 0-.5zM468.1 379.4c-.1-.2-.5-.3-.7-.2s-.3.4-.2.7c1.3 2.2 2.3 4.5 3 7 .9 3 1.2 6.2 1.1 9.3 0 .3.2.5.5.5s.5-.2.5-.5c.1-3.2-.2-6.5-1.1-9.6-.8-2.6-1.8-5-3.1-7.2z"/><path class="st9" d="M420.2 375.5c.3 0 .4.3.2.5l-4.9 5.2v5.2c0 .1 0 .2-.1.2l-4.6 1.8c-.1.1-.3 0-.3-.1v-7.2l-5-5.1c-.2-.2 0-.5.2-.5h14.5zM408.7 379.5h8M410.7 382.5h5M410.7 384.5h5M410.7 386.5h5"/><path class="st91" d="M220 386v-1h5v1h-5zm2.5 1.1c3.3 0 5.9 2.7 5.9 6s-2.7 6-5.9 6c-1.9 0-3.5-.9-4.6-2.2h1.4c.9.8 2 1.2 3.2 1.2 2.7 0 4.9-2.2 4.9-5s-2.2-5-4.9-5c-1.5 0-2.8.7-3.8 1.8h-1.2c1.1-1.7 2.9-2.8 5-2.8zm-.5 2h1v3.8l1.9 1.9-.7.7-2.2-2.2v-4.2z"/><path class="st91" d="M216 391h4v1h-4zM215 393h5v1h-5zM216 395h4v1h-4z"/><g id="close_sinbox_1_"><path class="st92" d="m245.6 391.1-6.4 6.4M239.2 391.1l6.4 6.4"/></g><path transform="rotate(-45.001 264.247 392.858)" class="st11" d="M259.7 390.7h9.1v4.3h-9.1z"/><path class="st11" d="M261.5 399.1H258v-3.4M481 446.5c0 16.8-13.7 30.4-30.5 30.4-16.7 0-30.4-13.7-30.4-30.4 0-17 13.7-30.6 30.6-30.5 16.6 0 30.3 13.8 30.3 30.5zm-30.5 26.3c14.5 0 26.3-11.8 26.3-26.3s-11.8-26.3-26.2-26.3c-14.5 0-26.3 11.8-26.3 26.3-.1 14.4 11.7 26.3 26.2 26.3z"/><path class="st11" d="M445 446.5v-8.7c0-.4 0-.8.2-1.1.4-1.2 1.6-1.5 2.7-.8 2.4 1.6 4.8 3.3 7.1 5 1.9 1.3 3.7 2.6 5.6 3.9 1.4 1 1.4 2.6 0 3.6-4.2 2.9-8.4 5.8-12.6 8.8-.6.4-1.2.7-1.9.3-.8-.4-1-1.1-1-1.9v-5.1c-.1-1.4-.1-2.7-.1-4z"/><path class="st0" d="M369.4 439.7c14.4 0 26.4 10.3 29 24 6.8-7.2 11-16.8 11-27.5 0-22.1-17.9-40-40-40s-40 17.9-40 40c0 10.7 4.2 20.3 11 27.5 2.6-13.7 14.6-24 29-24z"/><path class="st93" d="M369.4 476.2c11.4 0 21.7-4.8 29-12.5-2.6-13.7-14.6-24-29-24s-26.4 10.3-29 24c7.3 7.7 17.6 12.5 29 12.5zM369.4 439.7c6.7 0 12.2-5.5 12.2-12.2s-5.5-12.2-12.2-12.2-12.2 5.5-12.2 12.2c.1 6.7 5.5 12.2 12.2 12.2zM447 550h-27v-41.8c0-1.9 1.2-3.2 3-3.2h21c1.8 0 3 1.3 3 3.2V550zM463 550h-14v-26h11.2c1.7 0 2.8 1.3 2.8 3.2V550z"/><path class="st0" d="M436 538h-5c-1.1 0-2 .9-2 2v10h9v-10c0-1.1-.9-2-2-2zM426.5 519h5c.3 0 .5.2.5.5v5c0 .3-.2.5-.5.5h-5c-.3 0-.5-.2-.5-.5v-5c0-.3.2-.5.5-.5zM426.5 511h5c.3 0 .5.2.5.5v5c0 .3-.2.5-.5.5h-5c-.3 0-.5-.2-.5-.5v-5c0-.3.2-.5.5-.5zM435.5 519h5c.3 0 .5.2.5.5v5c0 .3-.2.5-.5.5h-5c-.3 0-.5-.2-.5-.5v-5c0-.3.2-.5.5-.5zM453.5 529h5c.3 0 .5.2.5.5v5c0 .3-.2.5-.5.5h-5c-.3 0-.5-.2-.5-.5v-5c0-.3.2-.5.5-.5zM435.5 511h5c.3 0 .5.2.5.5v5c0 .3-.2.5-.5.5h-5c-.3 0-.5-.2-.5-.5v-5c0-.3.2-.5.5-.5zM426.5 527h5c.3 0 .5.2.5.5v5c0 .3-.2.5-.5.5h-5c-.3 0-.5-.2-.5-.5v-5c0-.3.2-.5.5-.5zM435.5 527h5c.3 0 .5.2.5.5v5c0 .3-.2.5-.5.5h-5c-.3 0-.5-.2-.5-.5v-5c0-.3.2-.5.5-.5zM453.5 537h5c.3 0 .5.2.5.5v5c0 .3-.2.5-.5.5h-5c-.3 0-.5-.2-.5-.5v-5c0-.3.2-.5.5-.5z"/><path class="st93" d="M418.4 548h46c.8 0 1.5.7 1.5 1.5s-.7 1.5-1.5 1.5h-46c-.8 0-1.5-.7-1.5-1.5s.7-1.5 1.5-1.5z"/><g id="Group_1781"><circle id="Ellipse_479" class="st94" cx="350.5" cy="376.5" r="6"/><path id="Line_1225" class="st94" d="M350.5 382.9v2.6"/><path id="Line_1226" class="st94" d="M359.5 376.5h-2.6"/><path id="Line_1227" class="st94" d="M343.9 376.5h-2.4"/><path id="Line_1228" class="st94" d="M350.5 367.5v2.4"/><circle id="Ellipse_480" class="st94" cx="350.5" cy="376.5" r="2.5"/><path id="Line_1229" class="st94" d="m352.1 378.3 4.6 4.5"/><path id="Line_1230" class="st94" d="m356.7 370.2-4.6 4.6"/><path id="Line_1231" class="st94" d="m348.6 378.3-4.6 4.5"/><path id="Line_1232" class="st94" d="m344 370.2 4.6 4.6"/></g><path class="st95" d="M388.5 377.1c0 5-4 9-9 9s-9-4-9-9 4-9 9-9M379.5 368.1c.3 0 .7 0 1 .1"/><path d="M382.2 368.5c3.1 1 5.4 3.5 6.1 6.7" style="fill:none;stroke:#ffa800;stroke-width:1.5;stroke-miterlimit:10;stroke-dasharray:1.7334,1.7334"/><path d="M388 377.6c0-5.3-3.6-9-9-9v9h9z" style="opacity:.2;fill:#ffa800;enable-background:new"/><circle cx="379.5" cy="377.1" r="1.5" style="fill:#ffa800"/><path class="st95" d="M379.5 370.1v7h7"/></svg>